<svg xmlns="http://www.w3.org/2000/svg" width="32.183" height="27.382" viewBox="0 0 32.183 27.382">
  <path id="Icon_awesome-home" data-name="Icon awesome-home" d="M15.147,9.068l-9.961,8.9v9.61a.9.9,0,0,0,.864.938L12.1,28.5a.9.9,0,0,0,.86-.938V21.952a.9.9,0,0,1,.864-.938h3.458a.9.9,0,0,1,.864.938V27.56a.981.981,0,0,0,.252.665.832.832,0,0,0,.612.276l6.052.018a.9.9,0,0,0,.864-.938V17.965l-9.959-8.9A.619.619,0,0,0,15.147,9.068ZM30.881,15.12l-4.517-4.041V2.957a.678.678,0,0,0-.648-.7H22.691a.678.678,0,0,0-.648.7V7.215L17.205,2.9a2.438,2.438,0,0,0-3.3,0L.234,15.12a.746.746,0,0,0-.086.991l1.378,1.818a.635.635,0,0,0,.439.253.614.614,0,0,0,.475-.158L15.147,6.664a.619.619,0,0,1,.827,0l12.708,11.36a.614.614,0,0,0,.913-.094l1.378-1.818a.745.745,0,0,0,.144-.517.722.722,0,0,0-.236-.476Z" transform="translate(0.563 -1.638)" fill="none" stroke="#fff" stroke-width="1"/>
</svg>
