<svg id="Icon_ionic-ios-chatbubbles" data-name="Icon ionic-ios-chatbubbles" xmlns="http://www.w3.org/2000/svg" width="27.508" height="27.508" viewBox="0 0 27.508 27.508">
  <path id="Path_26" data-name="Path 26" d="M20.809,18.026a1.6,1.6,0,0,1,.218-.807,2.227,2.227,0,0,1,.139-.2,10.714,10.714,0,0,0,1.825-5.971A11.248,11.248,0,0,0,11.506,0,11.407,11.407,0,0,0,.245,8.788,10.626,10.626,0,0,0,0,11.049,11.217,11.217,0,0,0,11.307,22.231a13.618,13.618,0,0,0,3.121-.509c.747-.2,1.488-.476,1.68-.549a1.748,1.748,0,0,1,.615-.112,1.719,1.719,0,0,1,.668.132l3.749,1.329a.894.894,0,0,0,.258.066.526.526,0,0,0,.529-.529.849.849,0,0,0-.033-.179Z" transform="translate(4.516 0)" fill="#fff"/>
  <path id="Path_27" data-name="Path 27" d="M17.887,13.82c-.238.066-.542.139-.873.212a12.2,12.2,0,0,1-2.248.3A11.217,11.217,0,0,1,3.458,3.148a12.5,12.5,0,0,1,.1-1.415c.04-.284.086-.569.152-.846.066-.3.145-.6.231-.886L3.412.469A9.841,9.841,0,0,0,0,7.869a9.731,9.731,0,0,0,1.64,5.422c.152.231.238.41.212.529s-.787,4.1-.787,4.1a.53.53,0,0,0,.179.509.539.539,0,0,0,.337.119.474.474,0,0,0,.192-.04l3.71-1.461a1.033,1.033,0,0,1,.377-.073,1.044,1.044,0,0,1,.417.086,11.129,11.129,0,0,0,4.014.793A10.385,10.385,0,0,0,18.23,14.21s.212-.291.456-.635C18.442,13.661,18.164,13.747,17.887,13.82Z" transform="translate(0 8.96)" fill="#fff"/>
</svg>
