<svg xmlns="http://www.w3.org/2000/svg" width="28.453" height="24.486" viewBox="0 0 28.453 24.486">
  <g id="Group_775" data-name="Group 775" transform="translate(-26.524 -9.508)">
    <path id="Path_18" data-name="Path 18" d="M8.472,2.361A3.478,3.478,0,0,0,7.1,5.239c.071.866.247,1.992.247,1.992s-.348.189-.348.949c.121,1.908.759,1.084.89,1.921.316,2.016,1.037,1.657,1.037,2.757,0,1.832-.756,2.689-3.115,3.7S1,18.866,1,21.088V22.2H21V21.088c0-2.222-2.441-3.506-4.809-4.525s-3.112-1.871-3.112-3.7c0-1.1.719-.741,1.036-2.757.132-.837.769-.013.892-1.921,0-.76-.349-.949-.349-.949s.176-1.127.246-1.992A3.433,3.433,0,0,0,12.348,1.8c-.37-.378-.62-.979.518-1.582C10.377.1,9.8,1.4,8.472,2.361Z" transform="translate(33.476 9.795)" fill="none" stroke="#fff" stroke-width="1"/>
    <path id="Icon_ionic-ios-add-circle" data-name="Icon ionic-ios-add-circle" d="M8.665,3.375a5.29,5.29,0,1,0,5.29,5.29A5.289,5.289,0,0,0,8.665,3.375Zm2.3,5.7H9.071v1.895a.407.407,0,0,1-.814,0V9.071H6.363a.407.407,0,1,1,0-.814H8.258V6.363a.407.407,0,0,1,.814,0V8.258h1.895a.407.407,0,0,1,0,.814Z" transform="translate(23.149 20.04)" fill="#fff"/>
  </g>
</svg>
